<?xml version="1.0" encoding="UTF-8"?><svg version="1.1" id="Layer_1" xmlns="http://www.w3.org/2000/svg" xmlns:xlink="http://www.w3.org/1999/xlink" x="0px" y="0px" viewBox="0 0 1000 1000" enable-background="new 0 0 1000 1000" xml:space="preserve" width="1000px" height="1000px">
<ellipse fill="#E4E8EC" cx="500" cy="878.599" rx="207.516" ry="22.599"/>
<path fill="#4BE080" d="M468.821,793.71c0.001,17.22,13.962,31.178,31.182,31.176c17.22-0.001,31.178-13.962,31.176-31.182
	c-0.001-12.633-7.625-24.017-19.307-28.828v-50.871h-23.744v50.871C476.446,769.689,468.822,781.075,468.821,793.71z"/>
<rect x="488.128" y="714.006" fill="#4ACC8A" width="23.743" height="21.241"/>
<path fill="#441A36" d="M500,827.889c-18.878-0.002-34.18-15.307-34.178-34.184c0.001-13.111,7.502-25.066,19.307-30.772v-48.927
	c0-1.657,1.343-3,3-3h23.743c1.657,0,3,1.343,3,3v48.927c16.997,8.215,24.116,28.653,15.901,45.649
	C525.067,820.387,513.112,827.888,500,827.889z M491.129,717.006v47.871c0,1.215-0.734,2.31-1.857,2.773
	c-14.39,5.925-21.253,22.394-15.328,36.784c5.925,14.39,22.394,21.253,36.784,15.328c14.39-5.925,21.253-22.394,15.328-36.784
	c-2.861-6.949-8.379-12.467-15.328-15.328c-1.123-0.463-1.856-1.558-1.856-2.773v-47.871H491.129z"/>
<ellipse fill="#9DEDB8" cx="497.727" cy="808.392" rx="11.236" ry="6.153"/>
<path fill="#4BE080" d="M531.179,206.29c-0.001-17.22-13.962-31.178-31.182-31.176c-17.22,0.001-31.178,13.962-31.176,31.182
	c0.001,12.633,7.625,24.017,19.307,28.828v50.871h23.744v-50.871C523.554,230.311,531.178,218.925,531.179,206.29z"/>
<rect x="488.128" y="264.753" fill="#4ACC8A" width="23.743" height="21.241"/>
<path fill="#441A36" d="M511.872,288.994h-23.743c-1.657,0-3-1.343-3-3v-48.927c-16.995-8.213-24.115-28.649-15.901-45.644
	c8.213-16.995,28.649-24.115,45.644-15.901c16.995,8.213,24.115,28.649,15.901,45.644c-3.355,6.942-8.959,12.546-15.901,15.901
	v48.927C514.872,287.651,513.529,288.994,511.872,288.994z M491.129,282.994h17.743v-47.871c0-1.215,0.733-2.31,1.856-2.773
	c14.391-5.925,21.254-22.394,15.329-36.785c-5.925-14.391-22.394-21.254-36.785-15.329c-14.391,5.925-21.254,22.394-15.329,36.785
	c2.861,6.949,8.38,12.468,15.329,15.329c1.123,0.463,1.857,1.558,1.857,2.773V282.994z"/>
<ellipse fill="#9DEDB8" cx="502.273" cy="191.608" rx="11.236" ry="6.153"/>
<path fill="#4BE080" d="M619.853,769.949c8.611,14.911,27.68,20.018,42.591,11.407c14.911-8.611,20.018-27.68,11.407-42.591
	c-6.317-10.939-18.611-16.985-31.131-15.311L617.284,679.4l-20.562,11.87l25.435,44.056
	C614.446,745.335,613.536,759.007,619.853,769.949z"/>
<rect x="600.442" y="683.911" transform="matrix(0.866 -0.5 0.5 0.866 -265.2316 399.2063)" fill="#4ACC8A" width="23.743" height="21.241"/>
<path fill="#441A36" d="M646.91,788.554c-3.005-0.003-5.998-0.399-8.9-1.18c-8.767-2.323-16.24-8.058-20.752-15.925l0,0
	c-6.586-11.349-6.068-25.471,1.332-36.307l-24.466-42.372c-0.829-1.435-0.338-3.27,1.097-4.098c0.001-0.001,0.002-0.001,0.003-0.002
	l20.56-11.87c1.435-0.829,3.27-0.338,4.098,1.097c0.001,0.001,0.001,0.002,0.002,0.003l24.464,42.372
	c18.831-1.368,35.206,12.788,36.575,31.62s-12.788,35.206-31.62,36.575c-0.795,0.058-1.593,0.088-2.39,0.09L646.91,788.554z
	 M600.819,692.368l23.937,41.458c0.608,1.052,0.52,2.367-0.221,3.33c-6.992,9.037-7.816,21.409-2.084,31.293l0,0
	c7.782,13.477,25.017,18.094,38.494,10.312c13.477-7.782,18.094-25.017,10.312-38.494c-5.71-9.888-16.823-15.354-28.141-13.839
	c-1.204,0.157-2.384-0.424-2.994-1.474L616.186,683.5L600.819,692.368z"/>
<ellipse transform="matrix(0.866 -0.5 0.5 0.866 -296.7241 429.0349)" fill="#9DEDB8" cx="652.228" cy="768.212" rx="11.236" ry="6.153"/>
<path fill="#4BE080" d="M380.147,230.051c-8.614-14.91-27.683-20.014-42.593-11.4c-14.91,8.614-20.014,27.683-11.4,42.593
	c6.318,10.935,18.608,16.979,31.126,15.307l25.436,44.049l20.562-11.871l-25.435-44.056
	C385.553,254.665,386.463,240.993,380.147,230.051z"/>
<rect x="375.815" y="294.847" transform="matrix(0.866 -0.5 0.5 0.866 -100.7936 234.7679)" fill="#4ACC8A" width="23.743" height="21.241"/>
<path fill="#441A36" d="M382.716,323.6c-1.072,0.001-2.064-0.571-2.6-1.5l-24.464-42.372c-18.826,1.387-35.212-12.751-36.598-31.577
	s12.751-35.212,31.577-36.598c13.078-0.963,25.554,5.641,32.111,16.997l0,0c6.584,11.349,6.065,25.47-1.332,36.306l24.463,42.372
	c0.829,1.435,0.338,3.27-1.097,4.098c-0.001,0.001-0.002,0.001-0.003,0.002L384.216,323.2
	C383.76,323.463,383.242,323.601,382.716,323.6z M357.282,273.545c1.072-0.001,2.064,0.571,2.6,1.5l23.932,41.455l15.366-8.871
	l-23.935-41.458c-0.608-1.052-0.521-2.367,0.22-3.33c9.5-12.327,7.209-30.021-5.117-39.521c-12.327-9.5-30.021-7.209-39.521,5.117
	s-7.209,30.021,5.117,39.521c5.953,4.588,13.491,6.608,20.94,5.611C357.016,273.553,357.149,273.545,357.282,273.545
	L357.282,273.545z"/>
<ellipse transform="matrix(0.866 -0.5 0.5 0.866 -69.3016 204.9394)" fill="#9DEDB8" cx="347.771" cy="231.788" rx="11.236" ry="6.153"/>
<path fill="#4BE080" d="M738.771,673.856c14.914,8.607,33.981,3.495,42.588-11.418c8.607-14.914,3.495-33.981-11.418-42.588
	c-10.94-6.314-24.609-5.403-34.615,2.307l-44.056-25.434l-11.87,20.562l44.055,25.436
	C721.781,655.243,727.829,667.539,738.771,673.856z"/>
<rect x="682.646" y="601.71" transform="matrix(0.5 -0.866 0.866 0.5 -183.0392 907.6233)" fill="#4ACC8A" width="23.742" height="21.241"/>
<path fill="#441A36" d="M754.3,681.026c-5.981,0.003-11.856-1.575-17.031-4.572l0,0c-11.377-6.536-17.99-19.025-17-32.108
	L677.9,619.882c-1.436-0.827-1.929-2.662-1.102-4.097c0.001-0.001,0.001-0.002,0.002-0.003l11.871-20.562
	c0.827-1.436,2.662-1.929,4.097-1.102c0.001,0.001,0.002,0.001,0.003,0.002l42.372,24.463c15.608-10.617,36.867-6.572,47.484,9.036
	s6.572,36.867-9.036,47.484c-5.687,3.869-12.41,5.932-19.289,5.919L754.3,681.026z M740.269,671.259
	c13.479,7.78,30.712,3.16,38.492-10.319s3.16-30.712-10.319-38.492c-9.889-5.708-22.245-4.884-31.288,2.086
	c-0.963,0.741-2.278,0.829-3.33,0.221l-41.457-23.936l-8.867,15.367l41.458,23.936c1.052,0.608,1.634,1.79,1.473,2.994
	c-1.537,11.323,3.936,22.449,13.843,28.143H740.269z"/>
<ellipse transform="matrix(0.5 -0.866 0.866 0.5 -185.2859 991.4041)" fill="#9DEDB8" cx="765.938" cy="656.164" rx="11.236" ry="6.153"/>
<path fill="#4BE080" d="M261.229,326.144c-14.913-8.607-33.981-3.495-42.588,11.418s-3.495,33.981,11.418,42.588
	c10.94,6.314,24.609,5.403,34.615-2.307l44.056,25.435l11.87-20.563l-44.054-25.436C278.22,344.757,272.171,332.461,261.229,326.144
	z"/>
<rect x="293.596" y="377.066" transform="matrix(0.5 -0.866 0.866 0.5 -183.0129 458.3856)" fill="#4ACC8A" width="23.743" height="21.241"/>
<path fill="#441A36" d="M308.73,406.278c-0.526,0.001-1.044-0.137-1.5-0.4l-42.372-24.463c-15.611,10.614-36.87,6.563-47.484-9.048
	c-10.614-15.611-6.563-36.87,9.048-47.483c10.844-7.373,24.95-7.892,36.307-1.336l0,0c11.377,6.536,17.989,19.025,17,32.108
	l42.371,24.462c1.436,0.827,1.929,2.661,1.102,4.097c-0.001,0.001-0.001,0.002-0.002,0.003l-11.871,20.562
	c-0.536,0.929-1.528,1.501-2.6,1.5L308.73,406.278z M264.674,374.843c0.527-0.001,1.044,0.137,1.5,0.4l41.457,23.936l8.873-15.368
	l-41.458-23.935c-1.052-0.607-1.634-1.79-1.474-2.994c1.537-11.323-3.936-22.449-13.843-28.143l0,0
	c-13.479-7.78-30.712-3.16-38.492,10.319c-7.78,13.479-3.16,30.712,10.319,38.492c9.889,5.708,22.244,4.884,31.288-2.086
	C263.369,375.061,264.012,374.842,264.674,374.843L264.674,374.843z"/>
<ellipse transform="matrix(0.5 -0.866 0.866 0.5 -180.7502 374.6112)" fill="#9DEDB8" cx="234.052" cy="343.842" rx="11.236" ry="6.153"/>
<path fill="#4BE080" d="M793.71,531.179c17.22-0.002,31.178-13.962,31.176-31.182c-0.001-17.22-13.962-31.178-31.182-31.176
	c-12.633,0.001-24.017,7.625-28.828,19.307h-50.871v23.744h50.871C769.689,523.554,781.075,531.179,793.71,531.179z"/>
<rect x="714.006" y="488.128" fill="#4ACC8A" width="21.241" height="23.743"/>
<path fill="#441A36" d="M793.71,534.179c-13.121,0.027-25.092-7.482-30.778-19.307h-48.926c-1.657,0-3-1.343-3-3l0,0v-23.743
	c0-1.657,1.343-3,3-3h48.926c8.212-16.997,28.649-24.118,45.646-15.906c16.997,8.212,24.118,28.649,15.906,45.646
	C818.779,526.676,806.823,534.178,793.71,534.179z M717.01,508.872h47.871c1.215,0,2.31,0.733,2.773,1.856
	c5.925,14.391,22.394,21.254,36.785,15.329c14.391-5.925,21.254-22.394,15.329-36.785s-22.394-21.254-36.785-15.329
	c-6.949,2.861-12.468,8.38-15.329,15.329c-0.463,1.123-1.558,1.857-2.773,1.857h-47.875L717.01,508.872z"/>
<ellipse fill="#9DEDB8" cx="808.392" cy="502.273" rx="6.153" ry="11.236"/>
<path fill="#4BE080" d="M206.29,468.821c-17.22,0.001-31.178,13.962-31.176,31.182s13.962,31.178,31.182,31.176
	c12.633-0.001,24.017-7.625,28.828-19.307h50.871v-23.744h-50.871C230.311,476.446,218.925,468.822,206.29,468.821z"/>
<rect x="264.753" y="488.128" fill="#4ACC8A" width="21.241" height="23.743"/>
<path fill="#441A36" d="M206.291,534.179c-18.877-0.001-34.178-15.304-34.177-34.181c0.001-18.877,15.304-34.178,34.181-34.177
	c13.112,0.001,25.068,7.502,30.773,19.308H286c1.657,0,3,1.343,3,3l0,0v23.743c0,1.657-1.343,3-3,3h0h-48.933
	C231.382,526.697,219.412,534.207,206.291,534.179z M206.291,471.821c-15.563,0.001-28.179,12.617-28.178,28.18
	c0.001,15.563,12.617,28.179,28.18,28.178c11.419,0,21.709-6.892,26.056-17.451c0.463-1.123,1.559-1.856,2.774-1.856H283v-17.743
	h-47.877c-1.215,0-2.311-0.733-2.774-1.857C228.019,478.698,217.717,471.799,206.291,471.821z"/>
<ellipse fill="#9DEDB8" cx="191.608" cy="497.727" rx="6.153" ry="11.236"/>
<path fill="#4BE080" d="M769.949,380.147c14.911-8.611,20.018-27.68,11.407-42.591c-8.611-14.911-27.68-20.018-42.591-11.407
	c-10.939,6.317-16.985,18.611-15.311,31.131L679.4,382.716l11.871,20.562l44.056-25.435
	C745.336,385.553,759.007,386.463,769.949,380.147z"/>
<rect x="683.911" y="375.815" transform="matrix(0.866 -0.5 0.5 0.866 -100.7934 399.2061)" fill="#4ACC8A" width="21.241" height="23.743"/>
<path fill="#441A36" d="M691.27,406.278c-1.072,0.001-2.064-0.571-2.6-1.5l-11.87-20.562c-0.829-1.435-0.338-3.27,1.097-4.098
	c0.001-0.001,0.002-0.001,0.003-0.002l42.372-24.464c-1.386-18.826,12.752-35.211,31.578-36.598s35.211,12.752,36.598,31.578
	c0.963,13.077-5.641,25.553-16.996,32.11l0,0c-11.349,6.585-25.471,6.067-36.308-1.331l-42.373,24.465
	C692.314,406.14,691.797,406.278,691.27,406.278z M683.5,383.813l8.872,15.368l41.457-23.936c1.052-0.608,2.367-0.52,3.33,0.221
	c9.038,6.993,21.409,7.816,31.294,2.083l0,0c13.477-7.783,18.093-25.017,10.31-38.494c-7.783-13.477-25.017-18.093-38.494-10.31
	c-9.888,5.71-15.352,16.822-13.838,28.14c0.16,1.204-0.421,2.386-1.473,2.994L683.5,383.813z"/>
<ellipse transform="matrix(0.866 -0.5 0.5 0.866 -70.9648 430.6986)" fill="#9DEDB8" cx="768.212" cy="347.771" rx="6.153" ry="11.236"/>
<path fill="#4BE080" d="M230.051,619.853c-14.91,8.614-20.014,27.683-11.4,42.593c8.614,14.91,27.683,20.014,42.593,11.4
	c10.935-6.318,16.979-18.608,15.307-31.126l44.049-25.436l-11.87-20.562l-44.056,25.435
	C254.665,614.446,240.993,613.536,230.051,619.853z"/>
<rect x="294.847" y="600.442" transform="matrix(0.866 -0.5 0.5 0.866 -265.2318 234.7681)" fill="#4ACC8A" width="21.241" height="23.743"/>
<path fill="#441A36" d="M245.7,681.026c-18.873,0.036-34.202-15.234-34.239-34.107c-0.023-12.234,6.495-23.547,17.091-29.663l0,0
	c11.349-6.584,25.471-6.067,36.308,1.331l42.372-24.463c1.435-0.829,3.27-0.338,4.098,1.097c0.001,0.001,0.001,0.002,0.002,0.003
	l11.868,20.56c0.829,1.435,0.338,3.27-1.097,4.098c-0.001,0.001-0.002,0.001-0.003,0.002l-42.372,24.464
	c1.388,18.818-12.741,35.199-31.559,36.587c-0.822,0.061-1.647,0.092-2.472,0.093L245.7,681.026z M245.652,618.659
	c-4.952,0.003-9.815,1.31-14.1,3.792l0,0c-13.477,7.783-18.093,25.017-10.31,38.494c7.783,13.477,25.017,18.093,38.494,10.31
	c9.888-5.71,15.353-16.823,13.838-28.14c-0.16-1.204,0.422-2.387,1.474-2.994l41.452-23.936l-8.873-15.367l-41.457,23.936
	c-1.052,0.607-2.367,0.52-3.33-0.221c-4.923-3.805-10.968-5.871-17.19-5.875H245.652z M230.052,619.853L230.052,619.853z"/>
<ellipse transform="matrix(0.866 -0.5 0.5 0.866 -295.0603 203.2761)" fill="#9DEDB8" cx="231.788" cy="652.228" rx="6.153" ry="11.236"/>
<path fill="#4BE080" d="M673.856,261.229c8.607-14.913,3.495-33.981-11.418-42.588s-33.981-3.495-42.588,11.418
	c-6.314,10.94-5.403,24.609,2.307,34.615l-25.434,44.056l20.562,11.87l25.436-44.055
	C655.243,278.219,667.539,272.171,673.856,261.229z"/>
<rect x="601.693" y="293.596" transform="matrix(0.5 -0.866 0.866 0.5 41.6139 683.0128)" fill="#4ACC8A" width="21.241" height="23.743"/>
<path fill="#441A36" d="M617.284,323.6c-0.526,0.001-1.044-0.137-1.5-0.4l-20.563-11.872c-1.436-0.827-1.929-2.662-1.102-4.097
	c0.001-0.001,0.001-0.002,0.002-0.003l24.464-42.372c-10.614-15.611-6.563-36.87,9.047-47.484
	c15.611-10.614,36.87-6.563,47.484,9.047c7.373,10.845,7.892,24.952,1.335,36.308l0,0c-6.533,11.381-19.025,17.995-32.11,17
	l-24.46,42.372c-0.536,0.929-1.528,1.501-2.6,1.5H617.284z M600.819,307.631l15.367,8.872l23.936-41.458
	c0.607-1.052,1.79-1.634,2.994-1.474c11.322,1.536,22.448-3.936,28.141-13.843l0,0c7.781-13.478,3.162-30.712-10.317-38.493
	c-13.478-7.781-30.712-3.162-38.493,10.317c-5.709,9.89-4.885,22.247,2.086,31.291c0.741,0.963,0.828,2.278,0.221,3.33
	L600.819,307.631z"/>
<ellipse transform="matrix(0.5 -0.866 0.866 0.5 125.3553 685.2819)" fill="#9DEDB8" cx="656.158" cy="234.078" rx="6.153" ry="11.236"/>
<path fill="#4BE080" d="M326.144,738.771c-8.607,14.914-3.495,33.981,11.418,42.588c14.914,8.607,33.981,3.495,42.588-11.418
	c6.314-10.94,5.403-24.609-2.307-34.615l25.435-44.056l-20.563-11.87l-25.436,44.054
	C344.757,721.78,332.461,727.829,326.144,738.771z"/>
<rect x="377.067" y="682.661" transform="matrix(0.5 -0.866 0.866 0.5 -407.6396 683.0132)" fill="#4ACC8A" width="21.241" height="23.743"/>
<path fill="#441A36" d="M353.09,788.554c-18.888-0.046-34.163-15.395-34.117-34.283c0.015-5.969,1.591-11.83,4.573-17.001l0,0
	c6.537-11.377,19.025-17.989,32.109-17l24.464-42.37c0.827-1.436,2.662-1.929,4.097-1.102c0.001,0.001,0.002,0.001,0.003,0.002
	l20.562,11.872c1.436,0.827,1.929,2.661,1.102,4.097c-0.001,0.001-0.001,0.002-0.002,0.003l-24.463,42.372
	c10.599,15.647,6.508,36.924-9.14,47.523c-5.662,3.836-12.344,5.887-19.183,5.888L353.09,788.554z M328.741,740.27
	c-7.781,13.478-3.161,30.712,10.317,38.493c13.478,7.78,30.712,3.161,38.493-10.317c5.709-9.889,4.885-22.246-2.085-31.29
	c-0.741-0.963-0.828-2.278-0.22-3.33l23.935-41.458l-15.366-8.868l-23.935,41.457c-0.611,1.052-1.794,1.633-3,1.474
	c-11.323-1.536-22.448,3.936-28.143,13.842L328.741,740.27z"/>
<ellipse transform="matrix(0.5 -0.866 0.866 0.5 -491.4208 680.7167)" fill="#9DEDB8" cx="343.816" cy="765.948" rx="6.153" ry="11.236"/>
<circle fill="#4BE080" cx="500" cy="500" r="221.365"/>
<path fill="#4ACC8A" d="M645.972,333.6c35.794,40.407,55.523,92.541,55.449,146.522c0,122.257-99.108,221.365-221.365,221.365
	c-53.728,0.075-105.635-19.469-145.972-54.961c41.974,47.64,102.423,74.906,165.916,74.839
	c122.256,0,221.365-99.108,221.365-221.365C721.431,436.251,693.943,375.584,645.972,333.6z"/>
<path fill="#441A36" d="M500,724.365c-123.913,0-224.365-100.452-224.365-224.365c0-123.913,100.452-224.365,224.365-224.365
	c123.913,0,224.365,100.452,224.365,224.365c0,59.505-23.638,116.573-65.715,158.65C616.665,700.864,559.537,724.527,500,724.365z
	 M500,281.635C379.4,281.634,281.633,379.4,281.633,500c-0.001,120.6,97.765,218.367,218.365,218.367
	c120.6,0.001,218.366-97.765,218.367-218.365c0-57.915-23.006-113.457-63.958-154.409C613.545,304.508,557.945,281.477,500,281.635
	L500,281.635z"/>
<path fill="#441A36" d="M352.678,492.942c-21.892,18.877-29.509,80.07,36.112,131.019c70.989,55.118,195.734,47.5,244.442-17.685
	c24.626-32.956,26.909-86.018,10.148-97.948c-33.7-23.983-70.152,13.192-78.647,15.812c-20.372,6.283-48.508,6.982-88.895-9.486
	C426.68,494.609,383.845,466.066,352.678,492.942z"/>
<path fill="#FFC417" d="M475.838,514.654c-12.76-5.2-25.093-10.978-36.908-16.208c-1.461,3.773-2.034,9.289-1.477,17.358
	c0.908,13.174,11.075,27.176,27.849,27.176c12.982,0,20.895-11.914,24.324-23.2C485.194,518.294,480.6,516.6,475.838,514.654z"/>
<path fill="#FFC417" d="M411.462,521.117c13.516-0.058,25.425-8.895,29.4-21.813C420.1,490.055,400.9,482.293,383.784,482
	c-0.453,3.965-0.511,7.966-0.171,11.943C384.521,507.114,394.687,521.117,411.462,521.117z"/>
<path fill="#FFC417" d="M592.122,549.187c14.375-5.128,13.356-30.078,13.356-44.935c0-0.714-0.006-1.379-0.017-2.02
	c-16.6,4.59-30.693,16.117-37.742,20.408C568.72,537.069,578.843,553.924,592.122,549.187z"/>
<path fill="#FFC417" d="M636.118,504.1c-10.422-4.829-20.9-4.542-30.534-1.9c-0.046,0.65-0.082,1.331-0.106,2.055
	c-0.748,22.457,4.1,32.092,11.259,32.092C626.108,536.344,636.069,516.754,636.118,504.1z"/>
<path fill="#441A36" d="M465.3,545.98c-8.396,0.105-16.435-3.395-22.078-9.613c-5.115-5.615-8.2-12.782-8.763-20.357
	c-0.565-8.185-0.018-14.285,1.672-18.648c0.599-1.545,2.336-2.312,3.881-1.713c0.044,0.017,0.088,0.035,0.131,0.054
	c3.43,1.518,6.9,3.081,10.415,4.663c8.554,3.852,17.4,7.834,26.411,11.509l0,0c4.551,1.855,9.13,3.557,13.61,5.057
	c1.54,0.516,2.389,2.163,1.917,3.717C487.678,536.512,477.511,545.98,465.3,545.98z M440.862,502.589
	c-0.694,4.301-0.835,8.673-0.417,13.009c0.814,11.82,9.8,24.382,24.855,24.382c11.961,0,18.07-11.832,20.521-18.335
	c-3.682-1.289-7.409-2.7-11.117-4.214l0,0c-9.113-3.717-18.007-7.722-26.609-11.6c-2.43-1.087-4.841-2.168-7.232-3.242H440.862z"/>
<path fill="#441A36" d="M411.462,524.116c-8.396,0.105-16.435-3.394-22.079-9.612c-5.115-5.616-8.2-12.783-8.763-20.358
	c-0.356-4.178-0.292-8.382,0.19-12.547c0.217-1.501,1.509-2.612,3.026-2.6c18.067,0.313,37.862,8.488,58.248,17.566
	c1.363,0.607,2.073,2.124,1.665,3.56C439.391,514.322,426.313,524.041,411.462,524.116z M386.5,485.11
	c-0.148,2.874-0.113,5.755,0.106,8.624c0.815,11.82,9.8,24.382,24.856,24.382c11.234-0.046,21.347-6.817,25.669-17.186
	C419.294,493.042,402.019,486.1,386.5,485.11z"/>
<path fill="#441A36" d="M587.585,553c-3.215-0.028-6.349-1.005-9.01-2.809c-7.372-4.824-13.067-16.069-13.849-27.346
	c-0.077-1.119,0.476-2.187,1.434-2.77c1.472-0.9,3.317-2.157,5.452-3.617c7.806-5.336,19.6-13.4,33.05-17.119
	c1.597-0.442,3.25,0.494,3.692,2.091c0.068,0.246,0.104,0.499,0.108,0.754c0.009,0.656,0.016,1.335,0.016,2.066
	c0,0.889,0,1.813,0.008,2.767c0.061,15.714,0.155,39.46-15.356,44.994l0,0C591.352,552.657,589.477,552.992,587.585,553z
	 M592.122,549.185L592.122,549.185z M570.881,524.185c1.071,8.79,5.533,17.419,10.98,20.985c2.701,1.895,6.161,2.34,9.253,1.188
	c11.511-4.106,11.427-25.3,11.372-39.318v-0.738c-10.973,3.819-20.769,10.517-27.485,15.107c-1.517,1.039-2.889,1.977-4.12,2.78
	V524.185z"/>
<path fill="#441A36" d="M616.737,539.345c-2.902-0.008-5.671-1.219-7.646-3.345c-4.921-5.089-7.146-15.8-6.611-31.849
	c0.025-0.761,0.063-1.479,0.111-2.166c0.09-1.27,0.972-2.346,2.2-2.682c11.722-3.215,22.688-2.52,32.59,2.07
	c1.064,0.493,1.742,1.561,1.738,2.733C639.067,517.383,628.585,539.345,616.737,539.345z M608.469,504.558
	c-0.594,18.668,2.833,25.1,4.936,27.271c0.84,0.962,2.055,1.515,3.332,1.516c6.337,0,15.325-15.46,16.3-27.319
	C625.444,502.961,617.37,502.478,608.469,504.558L608.469,504.558z"/>
<path fill="#441A36" d="M504.349,663.771c-43.873,0-86.268-13.27-117.4-37.441c-44.924-34.88-52.433-71.277-52.911-89.869
	c-0.487-18.953,5.9-36.5,16.679-45.791c26.867-23.169,60.681-7.941,99.831,9.691c8.557,3.854,17.405,7.838,26.421,11.514
	c34.008,13.868,62.425,16.942,86.879,9.4c1.321-0.407,4.451-2.547,7.766-4.814c14.628-10,45.066-30.816,73.5-10.574
	c5.6,3.987,9.452,11.77,11.133,22.508c3.247,20.743-1.821,54.525-20.617,79.679c-21.4,28.639-57.7,47.726-102.207,53.746
	C523.786,663.121,514.073,663.772,504.349,663.771z M354.636,495.214c-9.447,8.146-15.041,23.892-14.6,41.093
	c0.451,17.53,7.623,51.921,50.593,85.285c36.735,28.521,89.817,41.334,141.994,34.279c42.9-5.8,77.778-24.054,98.2-51.392
	c16.968-22.707,22.65-55,19.5-75.16c-1.4-8.974-4.488-15.561-8.684-18.547c-25.031-17.816-52.1,0.695-66.638,10.639
	c-4.333,2.963-7.2,4.92-9.385,5.6c-25.836,7.968-55.571,4.835-90.912-9.575c-9.116-3.718-18.014-7.725-26.619-11.6
	c-37.281-16.789-69.476-31.288-93.45-10.618L354.636,495.214z M352.677,492.942L352.677,492.942z"/>
<path fill="#FF4F7C" d="M493.529,580.17c-6.364-0.002-12.689,1.006-18.737,2.988c-11.918-16.5-30.395-27.111-51.156-27.111
	c-27.137,0-50.387,18.109-60.158,43.842c17.538,20.65,39.906,36.646,65.116,46.568v0.021c0.875,0.35,1.757,0.684,2.639,1.021
	c0.395,0.151,0.787,0.309,1.183,0.458c1.623,0.607,3.26,1.185,4.9,1.749c0.55,0.189,1.101,0.374,1.653,0.557
	c1.54,0.513,3.087,1.008,4.642,1.485c0.256,0.078,0.511,0.159,0.767,0.236c1.686,0.507,3.382,0.985,5.084,1.447
	c0.495,0.133,0.991,0.267,1.487,0.4c1.777,0.468,3.559,0.92,5.351,1.34c0.13,0.031,0.261,0.058,0.391,0.088
	c1.726,0.4,3.46,0.774,5.2,1.131c0.437,0.09,0.875,0.179,1.314,0.266c1.845,0.367,3.695,0.71,5.552,1.031
	c0.162,0.027,0.325,0.051,0.486,0.078c1.748,0.294,3.5,0.564,5.256,0.811c0.393,0.056,0.786,0.113,1.179,0.167
	c1.884,0.257,3.771,0.491,5.661,0.7c0.058,0.006,0.116,0.015,0.175,0.022l0,0c25.82,2.88,51.951,0.91,77.048-5.808
	c0.027-0.839,0.059-1.677,0.059-2.523C558.621,611.939,529.478,580.17,493.529,580.17z"/>
<path fill="#441A36" d="M504.771,663.717c-7.825,0-15.645-0.42-23.425-1.259c-0.06,0-0.121-0.008-0.181-0.016l-0.114-0.013
	c-1.863-0.2-3.741-0.437-5.78-0.715l-1.194-0.169c-1.782-0.254-3.559-0.528-5.331-0.822l-0.491-0.081
	c-1.743-0.3-3.585-0.638-5.635-1.045l-1.334-0.271c-1.94-0.4-3.664-0.773-5.274-1.147l-0.387-0.086
	c-1.649-0.387-3.424-0.832-5.439-1.363c-0.506-0.133-1.01-0.267-1.512-0.4c-1.915-0.519-3.6-1-5.159-1.468l-0.779-0.24
	c-1.579-0.481-3.15-0.983-4.713-1.507c-0.56-0.186-1.12-0.375-1.679-0.566c-1.908-0.654-3.491-1.22-4.982-1.777
	c-0.245-0.092-0.488-0.187-0.731-0.283l-0.9-0.346c-0.753-0.288-1.506-0.576-2.253-0.874c-0.109-0.044-0.215-0.094-0.318-0.15
	c-14.395-5.693-27.929-13.361-40.21-22.784c-9.426-7.242-18.064-15.457-25.769-24.509c-0.701-0.834-0.896-1.982-0.509-3
	c10.56-27.808,35.275-45.777,62.963-45.777c20.358,0,39.3,9.673,52.3,26.62c5.719-1.659,11.645-2.501,17.6-2.5
	c37.546,0,68.092,33.178,68.092,73.958c0,0.749-0.024,1.492-0.048,2.235l-0.013,0.383c-0.04,1.315-0.932,2.45-2.2,2.8
	C541.569,661.358,523.208,663.77,504.771,663.717z M481.721,656.466l0.118,0.01c24.702,2.748,49.698,1.007,73.781-5.141
	c0-0.069,0-0.138,0-0.207c0-37.473-27.855-67.958-62.092-67.958c-6.046-0.002-12.054,0.957-17.8,2.84
	c-1.242,0.405-2.602-0.04-3.365-1.1c-11.873-16.44-29.633-25.868-48.725-25.868c-24.629,0-46.71,15.745-56.708,40.266
	c7.147,8.189,15.085,15.652,23.7,22.279c11.931,9.148,25.085,16.579,39.077,22.079c0.106,0.043,0.21,0.091,0.311,0.146
	c0.615,0.243,1.235,0.479,1.854,0.715l0.946,0.365c0.215,0.084,0.431,0.169,0.647,0.25c1.438,0.538,2.971,1.085,4.826,1.721
	c0.54,0.186,1.082,0.369,1.625,0.549c1.518,0.505,3.042,0.993,4.571,1.462l0.756,0.232c1.5,0.452,3.14,0.918,5.007,1.424
	c0.489,0.133,0.977,0.265,1.465,0.394c1.961,0.515,3.686,0.948,5.271,1.32l0.387,0.086c1.556,0.362,3.231,0.726,5.119,1.114
	l1.295,0.263c2,0.395,3.787,0.727,5.473,1.015l0.484,0.079c1.718,0.288,3.444,0.555,5.177,0.8l1.162,0.164
	c1.985,0.272,3.811,0.5,5.581,0.691L481.721,656.466z M558.562,653.651L558.562,653.651z"/>
<path fill="#F2F2F2" d="M430.74,379.463c-20.012,29.403-12.399,69.462,17.004,89.474c29.403,20.012,69.462,12.399,89.474-17.004
	c1.201-1.765,2.314-3.588,3.334-5.463L430.74,379.463z"/>
<path fill="#441A36" d="M483.958,483.118c-37.224-0.001-67.399-30.179-67.397-67.403c0.001-13.536,4.077-26.758,11.697-37.944
	c0.901-1.319,2.677-1.701,4.04-0.869l109.812,67.006c1.368,0.833,1.84,2.594,1.072,4
	C531.384,469.611,508.66,483.121,483.958,483.118z M431.667,383.543c-17.663,28.949-8.515,66.736,20.434,84.399
	s66.736,8.515,84.399-20.434l0,0L431.667,383.543z"/>
<path fill="#441A36" d="M485.907,449.789c-19.217,0-34.795-15.579-34.794-34.796c0-6.99,2.105-13.817,6.041-19.593
	c0.901-1.319,2.677-1.701,4.04-0.869l54.218,33.083c1.368,0.833,1.84,2.594,1.072,4C510.392,442.817,498.66,449.791,485.907,449.789
	z M460.622,401.212c-7.59,13.978-2.412,31.462,11.566,39.053c12.992,7.055,29.215,3.127,37.541-9.089L460.622,401.212z"/>
<path fill="#FFFFFF" d="M592.293,412.228c-1.791-2.655-3.78-5.17-5.951-7.524l-45.315,42.122
	c13.75,20.374,36.374,29.146,50.53,19.592S606.044,432.6,592.293,412.228z"/>
<path fill="#441A36" d="M578.45,473.235c-13.726,0-29.372-9.117-39.909-24.731c-0.826-1.225-0.638-2.869,0.444-3.875l45.315-42.122
	c0.588-0.537,1.363-0.824,2.159-0.8c0.797,0.031,1.549,0.378,2.089,0.965c2.273,2.465,4.356,5.099,6.232,7.878l0,0
	c14.654,21.713,13.962,47.89-1.543,58.355C588.857,471.805,583.703,473.314,578.45,473.235z M544.989,447.235
	c12.877,17.487,32.6,24.981,44.891,16.693c12.762-8.615,12.729-31.056-0.074-50.026l0,0c-1.143-1.694-2.372-3.33-3.681-4.9
	L544.989,447.235z"/>
<path fill="#441A36" d="M459.632,397.093c-9.919,14.493-6.211,34.284,8.282,44.203c14.493,9.919,34.284,6.211,44.203-8.282
	c0.626-0.915,1.205-1.863,1.732-2.838L459.632,397.093z"/>
<path fill="#441A36" d="M553.325,460.3c10.583-0.592,18.682-9.652,18.09-20.234c-0.318-5.68-3.14-10.927-7.704-14.323
	l-22.684,21.086C544.432,451.907,548.577,456.447,553.325,460.3z"/>
<path fill="#441A36" d="M553.325,463.3c-0.684,0-1.348-0.234-1.881-0.663c-4.983-4.038-9.331-8.801-12.9-14.13
	c-0.827-1.225-0.639-2.87,0.443-3.876l22.684-21.086c1.063-0.985,2.679-1.07,3.839-0.2c9.826,7.324,11.855,21.228,4.531,31.054
	c-3.925,5.267-9.982,8.523-16.541,8.894C553.438,463.3,553.381,463.3,553.325,463.3z M544.989,447.241
	c2.694,3.675,5.813,7.018,9.292,9.96c8.091-1.033,14.156-7.914,14.164-16.071c0.014-4.255-1.663-8.341-4.662-11.36L544.989,447.241z
	"/>
<circle fill="#9DEDB8" cx="491.271" cy="330.443" r="17.329"/>
<circle fill="#9DEDB8" cx="596.722" cy="337.019" r="17.329"/>
<circle fill="#9DEDB8" cx="419.561" cy="348.577" r="11.14"/>
<circle fill="#9DEDB8" cx="358.913" cy="421.941" r="11.14"/>
<circle fill="#9DEDB8" cx="656.164" cy="437.449" r="5.57"/>
<circle fill="#9DEDB8" cx="553.051" cy="372.43" r="5.57"/>
<circle fill="#4BE080" cx="814.545" cy="118.533" r="51.785"/>
<path fill="#4ACC8A" d="M838.562,72.657c21.386,18.984,23.333,51.71,4.349,73.096c-15.791,17.788-41.67,22.53-62.742,11.496
	c21.383,18.988,54.11,17.046,73.098-4.337c18.988-21.383,17.046-54.11-4.337-73.098C845.778,77.015,842.296,74.612,838.562,72.657z"/>
<path fill="#441A36" d="M814.545,173.318c-30.257,0-54.785-24.528-54.785-54.785s24.528-54.785,54.785-54.785
	s54.785,24.528,54.785,54.785c0,0,0,0,0,0C869.296,148.776,844.788,173.284,814.545,173.318z M814.545,69.749
	c-26.943,0-48.785,21.842-48.785,48.785s21.842,48.785,48.785,48.785c26.943,0,48.785-21.842,48.785-48.785c0,0,0-0.001,0-0.001
	C863.299,91.603,841.475,69.779,814.545,69.749z"/>
<path fill="#441A36" d="M814.2,67.533c-1.657,0-3-1.343-3-3V46.226c0-1.657,1.343-3,3-3s3,1.343,3,3v18.307
	C817.2,66.19,815.857,67.533,814.2,67.533z"/>
<circle fill="#441A36" cx="814.545" cy="46.226" r="7.16"/>
<path fill="#441A36" d="M814.889,193.84c-1.657,0-3-1.343-3-3v-18.307c0-1.657,1.343-3,3-3s3,1.343,3,3v18.307
	C817.889,192.497,816.546,193.84,814.889,193.84z"/>
<circle fill="#441A36" cx="814.545" cy="190.84" r="7.16"/>
<path fill="#441A36" d="M787.25,74.941c-1.072,0.001-2.064-0.571-2.6-1.5l-9.15-15.855c-0.828-1.436-0.336-3.272,1.1-4.1
	c1.436-0.828,3.272-0.336,4.1,1.1l0,0l9.153,15.854c0.828,1.435,0.337,3.27-1.098,4.098c-0.455,0.263-0.971,0.401-1.496,0.402
	L787.25,74.941z"/>
<circle fill="#441A36" cx="778.391" cy="55.914" r="7.16"/>
<path fill="#441A36" d="M851,183.981c-1.072,0.001-2.064-0.571-2.6-1.5l-9.154-15.853c-0.828-1.436-0.336-3.272,1.1-4.1
	c1.436-0.828,3.272-0.336,4.1,1.1l9.154,15.853c0.828,1.435,0.337,3.27-1.098,4.098c-0.455,0.263-0.971,0.401-1.496,0.402H851z"/>
<circle fill="#441A36" cx="850.698" cy="181.153" r="7.16"/>
<path fill="#441A36" d="M767.6,94.832c-0.527,0.001-1.044-0.137-1.5-0.4l-15.854-9.154c-1.436-0.828-1.928-2.664-1.1-4.1
	s2.664-1.928,4.1-1.1l15.854,9.153c1.436,0.827,1.93,2.661,1.103,4.097C769.667,94.259,768.674,94.832,767.6,94.832L767.6,94.832z"/>
<circle fill="#441A36" cx="751.925" cy="82.38" r="7.16"/>
<path fill="#441A36" d="M877.334,157.39c-0.527,0.002-1.044-0.136-1.5-0.4l-15.855-9.153c-1.45-0.802-1.974-2.628-1.172-4.078
	c0.802-1.45,2.628-1.974,4.078-1.172c0.032,0.018,0.063,0.036,0.094,0.055l15.855,9.153c1.436,0.827,1.93,2.661,1.103,4.097
	c-0.536,0.931-1.529,1.505-2.603,1.503V157.39z"/>
<circle fill="#441A36" cx="877.164" cy="154.687" r="7.16"/>
<path fill="#441A36" d="M760.545,121.878h-18.307c-1.657,0-3-1.343-3-3s1.343-3,3-3h18.307c1.657,0,3,1.343,3,3
	S762.202,121.878,760.545,121.878z"/>
<circle fill="#441A36" cx="742.238" cy="118.533" r="7.16"/>
<path fill="#441A36" d="M886.851,121.189h-18.306c-1.657,0-3-1.343-3-3s1.343-3,3-3l0,0h18.306c1.657,0,3,1.343,3,3
	S888.508,121.189,886.851,121.189L886.851,121.189z"/>
<circle fill="#441A36" cx="886.851" cy="118.533" r="7.16"/>
<path fill="#441A36" d="M752.1,157.986c-1.657,0.002-3.002-1.34-3.003-2.997c-0.001-1.074,0.572-2.067,1.503-2.603l15.855-9.155
	c1.436-0.828,3.272-0.336,4.1,1.1c0.828,1.436,0.336,3.272-1.1,4.1l-15.855,9.152C753.144,157.847,752.627,157.987,752.1,157.986z"/>
<circle fill="#441A36" cx="751.925" cy="154.687" r="7.16"/>
<path fill="#441A36" d="M861.141,94.236c-1.657,0.002-3.001-1.34-3.003-2.997c-0.001-1.074,0.572-2.067,1.503-2.603l15.854-9.154
	c1.436-0.828,3.272-0.336,4.1,1.1s0.336,3.272-1.1,4.1l-15.854,9.153C862.185,94.099,861.668,94.237,861.141,94.236z"/>
<circle fill="#441A36" cx="877.164" cy="82.38" r="7.16"/>
<path fill="#441A36" d="M778.686,184.326c-1.657,0.001-3.001-1.341-3.002-2.998c0-0.527,0.138-1.045,0.402-1.502l9.154-15.854
	c0.828-1.436,2.664-1.928,4.1-1.1c1.436,0.828,1.928,2.664,1.1,4.1l-9.153,15.854C780.751,183.755,779.759,184.327,778.686,184.326z
	"/>
<circle fill="#441A36" cx="778.391" cy="181.153" r="7.16"/>
<path fill="#441A36" d="M841.244,74.6c-1.657,0.001-3.001-1.341-3.002-2.998c0-0.527,0.138-1.045,0.402-1.502l9.156-15.859
	c0.828-1.436,2.664-1.928,4.1-1.1c1.436,0.828,1.928,2.664,1.1,4.1l0,0L843.844,73.1C843.308,74.029,842.316,74.601,841.244,74.6z"/>
<circle fill="#441A36" cx="850.698" cy="55.914" r="7.16"/>
<circle fill="#9DEDB8" cx="797.316" cy="143.247" r="10.069"/>
<circle fill="#9DEDB8" cx="804.186" cy="111.373" r="5.035"/>
<circle fill="#4ACC8A" cx="824.899" cy="107.711" r="6.407"/>
<circle fill="#4BE080" cx="121.118" cy="788.162" r="34.593"/>
<path fill="#4ACC8A" d="M137.162,757.517c14.287,12.679,15.591,34.539,2.912,48.827c-10.549,11.887-27.841,15.055-41.919,7.68
	c14.285,12.683,36.146,11.384,48.829-2.901c12.683-14.285,11.384-36.146-2.901-48.829
	C141.979,760.427,139.655,758.822,137.162,757.517z"/>
<path fill="#441A36" d="M121.119,825.755c-20.762,0.001-37.593-16.83-37.594-37.592c-0.001-20.762,16.83-37.593,37.592-37.594
	s37.593,16.83,37.594,37.592c0,0,0,0.001,0,0.001C158.688,808.914,141.871,825.731,121.119,825.755z M121.119,756.569
	c-17.448-0.001-31.593,14.144-31.594,31.592c-0.001,17.448,14.144,31.593,31.592,31.594c17.448,0.001,31.593-14.144,31.594-31.592
	c0,0,0-0.001,0-0.001C152.691,770.722,138.559,756.589,121.119,756.569L121.119,756.569z"/>
<path fill="#441A36" d="M120.888,755.09c-1.657,0-3-1.343-3-3v-12.229c0-1.657,1.343-3,3-3s3,1.343,3,3v12.229
	C123.888,753.747,122.545,755.09,120.888,755.09z"/>
<circle fill="#441A36" cx="121.118" cy="739.861" r="4.783"/>
<path fill="#441A36" d="M121.348,839.464c-1.657,0-3-1.343-3-3v-12.23c0-1.657,1.343-3,3-3s3,1.343,3,3v12.23
	C124.348,838.121,123.005,839.464,121.348,839.464z"/>
<circle fill="#441A36" cx="121.118" cy="836.463" r="4.783"/>
<path fill="#441A36" d="M102.886,760.039c-1.072,0.001-2.064-0.571-2.6-1.5l-6.115-10.591c-0.802-1.45-0.277-3.275,1.172-4.077
	c1.412-0.782,3.19-0.305,4.023,1.077l6.115,10.591c0.828,1.435,0.337,3.27-1.098,4.098
	C103.928,759.9,103.412,760.038,102.886,760.039z"/>
<circle fill="#441A36" cx="96.968" cy="746.332" r="4.783"/>
<path fill="#441A36" d="M145.471,832.878c-1.072,0.001-2.064-0.571-2.6-1.5l-6.115-10.59c-0.828-1.436-0.336-3.272,1.1-4.1
	c1.436-0.828,3.272-0.336,4.1,1.1l6.114,10.59c0.828,1.435,0.337,3.27-1.098,4.098c-0.455,0.263-0.971,0.401-1.497,0.402H145.471z"/>
<circle fill="#441A36" cx="145.269" cy="829.992" r="4.783"/>
<path fill="#441A36" d="M89.761,773.326c-0.527,0.001-1.044-0.137-1.5-0.4l-10.591-6.115c-1.419-0.854-1.878-2.698-1.023-4.117
	c0.833-1.383,2.611-1.859,4.023-1.078l10.591,6.114c1.436,0.827,1.93,2.661,1.103,4.097c-0.536,0.931-1.529,1.504-2.603,1.503
	V773.326z"/>
<circle fill="#441A36" cx="79.288" cy="764.012" r="4.783"/>
<path fill="#441A36" d="M163.061,815.114c-0.527,0.001-1.044-0.137-1.5-0.4l-10.588-6.114c-1.436-0.828-1.928-2.664-1.1-4.1
	c0.828-1.436,2.664-1.928,4.1-1.1l10.591,6.115c1.436,0.827,1.93,2.661,1.103,4.097c-0.536,0.931-1.529,1.504-2.603,1.503
	L163.061,815.114z"/>
<circle fill="#441A36" cx="162.949" cy="812.313" r="4.783"/>
<path fill="#441A36" d="M85.047,791.392h-12.23c-1.657,0-3-1.343-3-3s1.343-3,3-3h12.23c1.657,0,3,1.343,3,3
	S86.704,791.392,85.047,791.392z"/>
<circle fill="#441A36" cx="72.817" cy="788.162" r="4.783"/>
<path fill="#441A36" d="M169.42,790.933h-12.229c-1.657,0-3-1.343-3-3s1.343-3,3-3h12.229c1.657,0,3,1.343,3,3
	S171.077,790.933,169.42,790.933z"/>
<circle fill="#441A36" cx="169.42" cy="788.162" r="4.783"/>
<path fill="#441A36" d="M79.406,815.513c-1.657,0.002-3.001-1.34-3.003-2.997c-0.001-1.074,0.572-2.067,1.503-2.603l10.588-6.113
	c1.436-0.828,3.272-0.336,4.1,1.1c0.828,1.436,0.336,3.272-1.1,4.1l0,0L80.9,815.109C80.446,815.373,79.931,815.512,79.406,815.513z
	"/>
<circle fill="#441A36" cx="79.288" cy="812.313" r="4.783"/>
<path fill="#441A36" d="M152.246,772.928c-1.657,0.002-3.001-1.34-3.003-2.997c-0.001-1.074,0.572-2.067,1.503-2.603l10.591-6.114
	c1.45-0.802,3.275-0.278,4.078,1.172c0.782,1.412,0.306,3.19-1.078,4.023l-10.591,6.114
	C153.291,772.788,152.773,772.928,152.246,772.928z"/>
<circle fill="#441A36" cx="162.949" cy="764.012" r="4.783"/>
<path fill="#441A36" d="M97.164,833.108c-1.657-0.002-2.999-1.346-2.997-3.003c0.001-0.526,0.139-1.042,0.402-1.497l6.115-10.59
	c0.828-1.436,2.664-1.928,4.1-1.1s1.928,2.664,1.1,4.1l-6.116,10.59C99.231,832.538,98.238,833.11,97.164,833.108z"/>
<circle fill="#441A36" cx="96.968" cy="829.992" r="4.783"/>
<path fill="#441A36" d="M138.953,759.808c-1.657-0.002-2.999-1.346-2.997-3.003c0.001-0.526,0.139-1.042,0.402-1.497l6.114-10.591
	c0.828-1.436,2.664-1.928,4.1-1.1c1.436,0.828,1.928,2.664,1.1,4.1l0,0l-6.115,10.591
	C141.02,759.238,140.027,759.81,138.953,759.808z"/>
<circle fill="#441A36" cx="145.269" cy="746.332" r="4.783"/>
<circle fill="#9DEDB8" cx="109.609" cy="804.671" r="6.726"/>
<circle fill="#9DEDB8" cx="114.199" cy="783.379" r="3.363"/>
<circle fill="#4ACC8A" cx="128.035" cy="780.933" r="4.28"/>
<path fill="#4ACC8A" d="M889.465,499.2c0.828,0,1.5-0.672,1.5-1.5s-0.672-1.5-1.5-1.5s-1.5,0.672-1.5,1.5
	S888.637,499.2,889.465,499.2L889.465,499.2z"/>
</svg>